<svg width="31" height="30" viewBox="0 0 31 30" fill="none" xmlns="http://www.w3.org/2000/svg">
<path d="M30.2641 15.8112C30.2641 15.7283 30.2641 15.6868 30.2641 15.6039C30.2641 15.4795 30.2641 15.3137 30.2641 15.1893C30.2641 13.5726 29.9723 11.9559 29.4304 10.4221C29.4304 10.3806 29.4304 10.3806 29.4304 10.3392C29.4304 10.2977 29.3887 10.2977 29.3887 10.2563L29.347 10.2148C29.3053 10.0904 29.2636 10.0075 29.2219 9.88317V9.84171C29.2219 9.80026 29.1803 9.75881 29.1803 9.75881C28.4299 7.89336 27.3461 6.23518 25.9287 4.78427L25.8871 4.74281C24.0946 2.96027 21.8435 1.63372 19.384 0.928993L19.2173 0.887536C18.592 0.721718 17.925 0.5559 17.258 0.472991L17.2164 0.431547H17.133C16.8412 0.390092 16.5494 0.348633 16.2576 0.348633H16.2159H16.1742H16.1325C16.0074 0.348633 15.9241 0.348633 15.799 0.348633H15.7156C15.6323 0.348633 15.5489 0.348633 15.5072 0.348633C15.4655 0.348633 15.3822 0.348633 15.3405 0.348633C15.1737 0.348633 15.0487 0.348633 14.8819 0.348633C14.8402 0.348633 14.7569 0.348633 14.7152 0.348633C14.6318 0.348633 14.5484 0.348633 14.4651 0.348633C14.4234 0.348633 14.4234 0.348633 14.3817 0.348633H14.34C14.2566 0.348633 14.1316 0.348633 14.0482 0.348633H14.0065C13.9648 0.348633 13.9648 0.348633 13.9231 0.348633C13.6313 0.390087 13.3396 0.390092 13.0477 0.431547H13.006C12.9644 0.431547 12.9227 0.431537 12.9227 0.472991C12.2557 0.5559 11.6304 0.680274 11.0051 0.846092H10.9217C10.8801 0.846092 10.8384 0.846092 10.8384 0.846092C10.7967 0.846092 10.7967 0.846082 10.7967 0.887536C10.2965 1.05335 9.79622 1.21918 9.33768 1.385H9.296C7.46181 2.13118 5.79436 3.25045 4.33535 4.6599L4.29367 4.70136C2.87635 6.11081 1.7925 7.72754 1.08384 9.55154C1.08384 9.55154 1.04215 9.59299 1.00046 9.63444C1.00046 9.6759 1.00046 9.6759 1.00046 9.71735C0.958777 9.80026 0.958785 9.84172 0.917099 9.92463V9.96608C0.917099 10.0075 0.87541 10.0075 0.87541 10.049C0.87541 10.0904 0.833721 10.1319 0.833721 10.1734C0.792035 10.2148 0.792035 10.2563 0.833721 10.2977C0.291803 11.8315 0.0416886 13.4483 0.0416886 15.0235C0.0416886 15.1479 0.0416886 15.3137 0.0416886 15.4381C0.0416886 15.521 0.0416886 15.5624 0.0416886 15.6453C0.0416886 15.6868 0 15.7283 0 15.7697C0 15.8941 0.0416886 16.0599 0.0416886 16.1428C0.208433 18.0912 0.708671 19.9566 1.58408 21.6562C1.58408 21.6977 1.58407 21.7392 1.62575 21.7806C1.62575 21.7806 1.62576 21.8221 1.66744 21.8221C2.45948 23.3559 3.54332 24.7653 4.87728 25.9261C4.87728 25.9261 4.87728 25.9675 4.91896 26.009C4.96065 26.0504 5.00233 26.0919 5.08571 26.1333C5.12739 26.1748 5.16907 26.1748 5.16907 26.2162C7.17 27.9159 9.54612 29.0766 12.089 29.5741L12.2974 29.6155C12.3391 29.6155 12.3808 29.6155 12.4225 29.6155C12.9227 29.6984 13.4229 29.7813 13.9231 29.7813C13.9648 29.7813 14.0482 29.8228 14.0899 29.7813H14.215C14.5068 29.7813 14.7569 29.8228 15.0487 29.8228C15.3405 29.8228 15.6323 29.8228 15.8824 29.7813H16.0075H16.0492H16.0908C16.1325 29.7813 16.1742 29.7813 16.1742 29.7399C16.7161 29.6984 17.2164 29.657 17.7166 29.5326H17.7583C17.8 29.5326 17.8 29.5326 17.8416 29.5326L18.0501 29.4911C22.5522 28.5792 26.3873 25.7602 28.5133 21.6977L28.555 21.6562C28.5967 21.6148 28.5966 21.5733 28.5966 21.5319C29.4721 19.7908 30.014 17.9668 30.139 16.0184C30.1807 15.8941 30.1807 15.7697 30.1807 15.6039C30.3058 15.8941 30.2641 15.8526 30.2641 15.8112ZM29.4304 17.5937C29.1803 19.0032 28.7217 20.3712 28.0547 21.6562C27.9297 21.8221 27.8046 21.9464 27.6379 22.1123C28.0964 20.8272 28.3882 19.5421 28.5133 18.257C28.8468 18.0497 29.1803 17.801 29.4304 17.5937ZM13.0894 29.0766C13.1311 29.1595 13.1728 29.2424 13.2562 29.2839C12.9227 29.2424 12.5892 29.201 12.2974 29.1181C11.9639 29.0352 11.5887 28.9522 11.2136 28.7864C11.7972 28.9108 12.4224 28.9937 13.0894 29.0766ZM4.12692 23.8119C4.87727 24.185 5.75267 24.5166 6.75314 24.8068C7.08662 25.7602 7.54518 26.5893 8.0871 27.2526C7.37843 26.9624 6.79484 26.6723 6.25292 26.3406L6.16955 26.465L6.21122 26.3406C5.58593 25.7603 4.87727 25.1384 4.12692 23.8119ZM10.088 2.3799C10.4215 2.25554 10.755 2.13118 11.1302 2.00681C10.8384 2.13118 10.5466 2.297 10.2548 2.46282C10.1714 2.42136 10.1297 2.42136 10.088 2.3799ZM11.1302 2.75299C11.5053 2.58717 11.9222 2.3799 12.3391 2.21409C12.089 2.42136 11.8389 2.62863 11.5887 2.8359C11.422 2.79445 11.2552 2.75299 11.1302 2.75299ZM12.4225 2.96026C12.9644 2.50426 13.5897 2.13117 14.2983 1.75808C14.0899 2.13117 13.9232 2.58718 13.7564 3.08463C13.2979 3.04318 12.8393 3.00172 12.4225 2.96026ZM16.5911 3.08463C16.4243 2.58718 16.2159 2.13117 16.0492 1.75808C16.7578 2.13117 17.3414 2.50426 17.8833 2.96026C17.4665 3.00172 17.0496 3.04318 16.5911 3.08463ZM18.7587 2.8359C18.5086 2.62863 18.2585 2.42136 18.0084 2.21409C18.4252 2.3799 18.8004 2.54573 19.1756 2.71154C19.0505 2.753 18.8838 2.79445 18.7587 2.8359ZM20.051 2.46282C19.7592 2.297 19.5091 2.17263 19.2173 2.04827C19.5508 2.17263 19.8843 2.25554 20.2178 2.42136C20.1761 2.42136 20.1344 2.42136 20.051 2.46282ZM27.4711 11.6243C26.7208 9.75881 25.8871 8.18354 24.9283 6.81554C25.3035 6.60827 25.5952 6.35953 25.8037 6.11081C26.9292 7.27153 27.888 8.63953 28.6383 10.2148C28.6383 10.6708 28.2215 11.1683 27.4711 11.6243ZM17.6749 25.8017C17.5081 26.8795 17.2163 27.7915 16.8412 28.4548C15.5906 28.5377 14.7569 28.5377 13.4646 28.4548C13.0894 27.7915 12.7976 26.8795 12.6309 25.8017C14.3817 25.9261 15.9658 25.9261 17.6749 25.8017ZM9.08757 7.35444C9.83792 5.77917 10.7133 4.49409 11.7972 3.49918C12.3391 3.58209 12.9227 3.665 13.548 3.70645C13.2145 4.78427 12.9227 6.11081 12.6726 7.81044C11.3386 7.72754 10.1714 7.56172 9.08757 7.35444ZM17.6749 7.81044C17.4248 6.15226 17.133 4.78427 16.7995 3.70645C17.4248 3.665 18.0084 3.58209 18.5503 3.49918C19.6342 4.49409 20.5096 5.77917 21.2599 7.35444C20.1761 7.56172 18.9672 7.72754 17.6749 7.81044ZM23.8444 13.6141C25.1367 13.3239 26.2206 12.9508 27.096 12.5363C27.7213 14.3188 27.9714 16.0599 27.888 17.8839C27.0126 18.3399 25.887 18.7544 24.5531 19.0861C24.5114 17.345 24.2613 15.6453 23.8444 13.6141ZM23.7194 12.9923C23.3025 11.0439 22.8023 9.30281 22.177 7.8519C23.0107 7.64463 23.7611 7.43735 24.3447 7.14717C25.3034 8.47371 26.1372 10.0904 26.8875 11.9559C26.0538 12.329 25.0116 12.6606 23.7194 12.9923ZM18.0918 20.6613C18.0501 22.1123 17.9667 23.5217 17.7583 25.1799C16.8829 25.2628 16.0075 25.2628 15.1737 25.2628C14.34 25.2628 13.4646 25.2213 12.5892 25.1799C12.3808 23.5632 12.2974 22.1123 12.2557 20.6613C14.1733 20.7443 16.1742 20.7443 18.0918 20.6613ZM7.25337 13.1166C7.67023 11.1683 8.17046 9.42717 8.83744 7.97626C9.96296 8.18353 11.2552 8.34936 12.5892 8.47372C12.3808 9.96608 12.1723 11.7486 11.9639 13.7799C10.2548 13.6141 8.6707 13.4068 7.25337 13.1166ZM18.4252 13.7384C18.2168 11.7072 18.0084 9.92463 17.7999 8.43226C19.1339 8.34935 20.4262 8.18353 21.5517 7.9348C22.177 9.38571 22.7189 11.1268 23.1358 13.0752C21.6768 13.4068 20.0927 13.6141 18.4252 13.7384ZM18.0918 19.9981C16.1325 20.1224 14.2149 20.1224 12.2557 19.9981C12.2557 18.3813 12.3391 16.6403 12.5475 14.4432C14.2983 14.5261 16.0908 14.5261 17.8416 14.4432C18.0084 16.6403 18.0918 18.3813 18.0918 19.9981ZM7.12832 13.7384C8.54565 14.0286 10.1714 14.2359 11.8805 14.3603C11.6721 16.5573 11.5887 18.2984 11.5887 19.9152C9.71286 19.7908 8.00374 19.5421 6.46135 19.169C6.46135 17.5108 6.71146 15.7697 7.12832 13.7384ZM23.2191 13.7384C23.636 15.7697 23.8861 17.4693 23.8861 19.169C22.3437 19.5006 20.5929 19.7493 18.7587 19.9152C18.7587 18.2984 18.6754 16.5573 18.4669 14.3603C20.1761 14.2773 21.7601 14.0701 23.2191 13.7384ZM12.5892 13.7799C12.7976 11.7486 13.006 9.96608 13.2145 8.47372C14.5484 8.55663 15.8407 8.55663 17.133 8.47372C17.3414 9.96608 17.5498 11.7486 17.7583 13.7799C16.0491 13.8628 14.2983 13.8628 12.5892 13.7799ZM8.17047 7.81044C7.54518 9.26135 7.04494 11.0024 6.62808 12.9508C5.33581 12.6606 4.29367 12.2875 3.45995 11.9144C4.2103 10.049 5.04401 8.43226 6.00279 7.10571C6.5864 7.3959 7.29507 7.60317 8.17047 7.81044ZM21.9269 7.23008C21.2182 5.65481 20.3428 4.41117 19.3423 3.37481C19.5925 3.33335 19.8426 3.25044 20.051 3.16753C21.5517 4.03808 22.844 5.15736 23.9695 6.60827C23.3859 6.85699 22.6772 7.06427 21.9269 7.23008ZM6.37798 6.60827C7.5035 5.15736 8.79575 4.03808 10.2965 3.16753C10.5049 3.25044 10.755 3.2919 11.0051 3.37481C10.0047 4.41117 9.12924 5.65481 8.42058 7.23008C7.62854 7.02281 6.96158 6.81554 6.37798 6.60827ZM3.20983 12.5363C4.08524 12.9508 5.16909 13.3239 6.46135 13.6141C6.04449 15.6868 5.79437 17.345 5.75269 19.0446C4.37705 18.713 3.29321 18.2984 2.4178 17.8424C2.33443 16.0599 2.58454 14.2773 3.20983 12.5363ZM11.5887 20.5784C11.6304 22.0293 11.7138 23.4388 11.9222 25.0555C10.2548 24.8897 8.7124 24.641 7.29508 24.2679C6.79484 22.817 6.50304 21.3661 6.46135 19.8737C8.00374 20.2053 9.71286 20.4541 11.5887 20.5784ZM18.4252 25.097C18.6337 23.4803 18.7171 22.0293 18.7587 20.6199C20.6346 20.4955 22.3437 20.2468 23.8861 19.9152C23.8444 21.4075 23.5526 22.8584 23.0524 24.3093C21.6351 24.6824 20.0927 24.9312 18.4252 25.097ZM13.2979 7.8519C13.548 6.15227 13.8815 4.82573 14.1733 3.74791C14.8403 3.78936 15.5072 3.78936 16.1325 3.74791C16.466 4.82573 16.7578 6.15227 17.0079 7.8519C15.7157 7.89336 14.5901 7.89336 13.2979 7.8519ZM5.79436 19.7079C5.83605 21.1588 6.08616 22.6097 6.54471 24.0606C5.41918 23.6875 4.46042 23.273 3.66838 22.817C3.08478 21.4075 2.66791 19.9981 2.50116 18.5886C3.41826 19.0446 4.50209 19.4177 5.79436 19.7079ZM12.0056 25.7602C12.1307 26.7966 12.3808 27.6672 12.7143 28.3719C11.5471 28.2475 10.4215 27.9988 9.42105 27.7086C8.67071 27.0453 8.0454 26.1333 7.58686 25.0141C8.92081 25.3457 10.4215 25.5944 12.0056 25.7602ZM22.7606 25.0141C22.2604 26.1748 21.6351 27.0868 20.8431 27.7501C19.8426 28.0402 18.7587 28.2475 17.5915 28.3719C17.925 27.6672 18.1751 26.7552 18.3002 25.7188C19.9259 25.5944 21.385 25.3457 22.7606 25.0141ZM27.8046 18.5886C27.6379 19.9981 27.2627 21.4075 26.6374 22.817C25.887 23.273 24.9283 23.6875 23.7611 24.0606C24.2196 22.6097 24.4697 21.2003 24.5114 19.7079C25.8037 19.4177 26.9292 19.0446 27.8046 18.5886ZM24.5531 6.31808C23.4276 4.86717 22.177 3.7479 20.718 2.8359C20.8013 2.79445 20.8847 2.753 20.9264 2.67009C22.5522 3.41627 24.0529 4.41118 25.3451 5.61336C25.2201 5.86209 24.9283 6.11081 24.5531 6.31808ZM5.79436 6.31808C5.41919 6.11081 5.12739 5.86208 5.00233 5.65481C6.25291 4.45262 7.75362 3.45773 9.37938 2.71154C9.46275 2.753 9.50444 2.79445 9.58781 2.87736C8.1288 3.74791 6.8782 4.86717 5.79436 6.31808ZM1.66744 10.1734C2.45948 8.63954 3.41827 7.23008 4.5021 6.11081C4.71053 6.35953 5.00233 6.60827 5.3775 6.81554C4.41872 8.14208 3.58501 9.75881 2.83466 11.6243C2.08431 11.1268 1.66744 10.6294 1.66744 10.1734ZM0.750357 16.2257V16.1428C0.708671 15.8526 0.708668 15.521 0.708668 15.1893C0.708668 13.7799 0.917099 12.4119 1.33396 11.0439C1.58408 11.4584 2.04263 11.8315 2.62623 12.2046C2.00094 13.9457 1.70913 15.6868 1.75082 17.4279C1.2089 17.0548 0.875415 16.6403 0.750357 16.2257ZM1.83418 18.257C1.95924 19.5006 2.25105 20.7857 2.70959 22.1123C2.54285 21.9879 2.41779 21.8221 2.33442 21.6977C1.66745 20.4126 1.2089 19.0446 0.958787 17.6352C1.16722 17.801 1.45901 18.0497 1.83418 18.257ZM16.3409 29.1595C16.2576 29.2424 16.1742 29.3253 16.0908 29.3668H15.9658C15.4239 29.4082 14.8403 29.4082 14.2983 29.3668H14.1733C14.0899 29.2839 14.0065 29.2424 13.9231 29.1595C14.7986 29.201 15.5489 29.201 16.3409 29.1595ZM19.0505 28.8279C18.6754 28.9523 18.3419 29.0352 18.0501 29.1181C17.7583 29.1595 17.4248 29.2424 17.0913 29.2839C17.133 29.201 17.1747 29.1595 17.258 29.0766C17.8416 29.0352 18.4669 28.9523 19.0505 28.8279ZM26.1789 23.8119C25.5119 25.0141 24.8449 25.6359 24.1362 26.2577C23.5943 26.6722 22.9273 27.0039 22.177 27.2941C22.7189 26.5893 23.1775 25.7602 23.5526 24.8068C24.5531 24.5166 25.4285 24.185 26.1789 23.8119ZM28.555 17.4279C28.5967 15.6868 28.3048 13.9457 27.6796 12.2046C28.3048 11.8315 28.7217 11.4584 28.9718 11.0439C29.3887 12.4119 29.5971 13.7799 29.5971 15.1893C29.5971 15.521 29.5554 15.8526 29.5554 16.1428V16.2257C29.4721 16.6403 29.1386 17.0548 28.555 17.4279ZM14.4234 3.12609C14.6318 2.50427 14.8819 1.96536 15.1737 1.55081C15.4655 2.00681 15.7156 2.50427 15.9241 3.12609C15.4238 3.12609 14.8819 3.12609 14.4234 3.12609Z" fill="#FC5640"/>
</svg>
