<svg width="25" height="24" viewBox="0 0 25 24" fill="none" xmlns="http://www.w3.org/2000/svg">
<path d="M23.551 11.5817H13.7454L20.6841 4.65129C20.7672 4.56728 20.8503 4.44128 20.8503 4.27327C20.8503 4.10526 20.8088 4.02124 20.6841 3.89523C20.4764 3.68522 20.144 3.68522 19.9363 3.89523L12.9975 10.8256V1.03907C12.9975 0.745052 12.7482 0.535034 12.4989 0.535034C12.2081 0.535034 12.0003 0.787054 12.0003 1.03907V10.8256L5.06163 3.89523C4.85388 3.68522 4.52147 3.68522 4.31372 3.89523C4.23062 3.97924 4.14754 4.10526 4.14754 4.27327C4.14754 4.44128 4.18907 4.52528 4.31372 4.65129L11.2524 11.5817H1.44684C1.15599 11.5817 0.948242 11.8337 0.948242 12.0857C0.948242 12.3377 1.19754 12.5898 1.44684 12.5898H11.2524L4.31372 19.5202C4.23062 19.6042 4.14754 19.7302 4.14754 19.8982C4.14754 20.0242 4.18907 20.1502 4.31372 20.2762C4.52147 20.4862 4.85388 20.4862 5.06163 20.2762L12.0003 13.3458V23.1324C12.0003 23.4264 12.2496 23.6364 12.4989 23.6364C12.7898 23.6364 12.9975 23.3844 12.9975 23.1324V13.3458L19.9363 20.2762C20.144 20.4862 20.4764 20.4862 20.6841 20.2762C20.7672 20.1922 20.8503 20.0662 20.8503 19.8982C20.8503 19.7722 20.8088 19.6462 20.6841 19.5202L13.7454 12.5898H23.551C23.8419 12.5898 24.0496 12.3377 24.0496 12.0857C24.0496 11.8337 23.8419 11.5817 23.551 11.5817Z" fill="#FC5640"/>
</svg>
