<svg width="87" height="35" viewBox="0 0 87 35" fill="none" xmlns="http://www.w3.org/2000/svg">
<path d="M11.8698 16.5126C12.9943 16.5126 13.869 14.8467 13.869 12.8059C13.869 10.7651 12.9527 9.09918 11.8698 9.09918C10.7453 9.09918 9.87071 10.7651 9.87071 12.8059C9.87071 14.8467 10.7869 16.5126 11.8698 16.5126ZM22.7401 16.5126C23.8646 16.5126 24.7392 14.8467 24.7392 12.8059C24.7392 10.7651 23.823 9.09918 22.7401 9.09918C21.6156 9.09918 20.7409 10.7651 20.7409 12.8059C20.6993 14.8467 21.6156 16.5126 22.7401 16.5126ZM38.1917 16.5126C39.3162 16.5126 40.1908 14.8467 40.1908 12.8059C40.1908 10.7651 39.2745 9.09918 38.1917 9.09918C37.0672 9.09918 36.1925 10.7651 36.1925 12.8059C36.1925 14.8467 37.1088 16.5126 38.1917 16.5126ZM49.0619 16.5126C50.1864 16.5126 51.061 14.8467 51.061 12.8059C51.061 10.7651 50.1448 9.09918 49.0619 9.09918C47.9374 9.09918 47.0628 10.7651 47.0628 12.8059C47.0211 14.8467 47.9374 16.5126 49.0619 16.5126ZM69.7195 26.8414C65.4714 26.8414 61.723 24.2592 60.182 20.4276C60.0571 20.0944 59.9322 19.8028 59.8489 19.4696C59.7239 19.0948 59.6406 18.7616 59.599 18.3868L59.474 18.4284L58.5994 18.595C58.7243 19.303 58.9326 19.9694 59.1825 20.6358C59.2658 20.8857 59.3907 21.1356 59.5157 21.3855C59.5989 21.5937 59.7239 21.802 59.8489 22.0102C61.7647 25.5503 65.513 27.841 69.7612 27.841C75.2171 27.841 79.8818 23.9677 80.8397 18.595L79.8401 18.4284C78.9239 23.3013 74.6757 26.8414 69.7195 26.8414ZM64.5135 16.5126C65.638 16.5126 66.5126 14.8467 66.5126 12.8059C66.5126 10.7651 65.5963 9.09918 64.5135 9.09918C63.389 9.09918 62.5144 10.7651 62.5144 12.8059C62.5144 14.8467 63.4306 16.5126 64.5135 16.5126ZM75.3837 16.5126C76.5082 16.5126 77.3829 14.8467 77.3829 12.8059C77.3829 10.7651 76.4666 9.09918 75.3837 9.09918C74.2592 9.09918 73.3846 10.7651 73.3846 12.8059C73.343 14.8467 74.2592 16.5126 75.3837 16.5126ZM69.7195 0.186401C64.4302 0.186401 59.6823 2.60202 56.5586 6.39203C53.435 2.60202 48.6871 0.186401 43.3977 0.186401C38.1084 0.186401 33.3605 2.60202 30.2368 6.39203C27.1132 2.60202 22.3652 0.186401 17.0759 0.186401C7.66332 0.186401 0 7.84972 0 17.2623C0 26.6748 7.66332 34.3381 17.0759 34.3381C22.3652 34.3381 27.1132 31.9225 30.2368 28.1325C33.3605 31.9225 38.1084 34.3381 43.3977 34.3381C48.6871 34.3381 53.435 31.9225 56.5586 28.1325C59.6823 31.9225 64.4302 34.3381 69.7195 34.3381C79.1321 34.3381 86.7954 26.6748 86.7954 17.2623C86.7954 7.84972 79.1321 0.186401 69.7195 0.186401ZM17.0759 33.3802C8.20475 33.3802 0.957935 26.1334 0.957935 17.2623C0.957935 8.39115 8.20475 1.14432 17.0759 1.14432C22.157 1.14432 26.6551 3.47663 29.6121 7.1417C27.5297 9.97379 26.2802 13.4723 26.2802 17.2623C26.2802 18.3451 26.3635 19.3863 26.5717 20.3859C25.0307 24.1759 21.2824 26.7998 17.0342 26.7998C12.0364 26.7998 7.7883 23.2596 6.91368 18.3451L5.91411 18.5117C6.87203 23.8844 11.5366 27.7993 17.0342 27.7993C21.2407 27.7993 24.9891 25.467 26.9466 21.9685C27.5297 23.926 28.4043 25.7586 29.6121 27.3828C26.6551 31.0479 22.157 33.3802 17.0759 33.3802ZM43.3977 33.3802C38.3166 33.3802 33.8186 31.0479 30.8615 27.3828C30.7366 27.2579 30.6533 27.133 30.57 27.008C30.445 26.8831 30.3618 26.7165 30.2785 26.5915C29.029 24.8423 28.1127 22.8015 27.6546 20.5941C27.5296 19.8861 27.4047 19.1781 27.3631 18.4701C27.3214 18.0952 27.3214 17.7204 27.3214 17.3039C27.3214 13.8471 28.4043 10.6402 30.2785 8.01632C30.3618 7.89137 30.4867 7.72478 30.57 7.59983C30.6533 7.47489 30.7782 7.34995 30.8615 7.225C33.8186 3.55994 38.3583 1.22761 43.3977 1.22761C48.4788 1.22761 52.9769 3.55994 55.9339 7.225C53.8515 10.0571 52.602 13.5556 52.602 17.3456C52.602 18.4284 52.6853 19.4696 52.8935 20.4692C51.3525 24.3009 47.6042 26.8831 43.3561 26.8831C39.1079 26.8831 35.3596 24.3009 33.8186 20.4692C33.6936 20.136 33.5687 19.8445 33.4854 19.5113C33.3604 19.1365 33.2771 18.8033 33.2355 18.4284L33.1105 18.4701L32.2359 18.6367C32.3609 19.3447 32.5691 20.0111 32.819 20.6774C32.9023 20.9273 33.0273 21.1772 33.1522 21.4271C33.2355 21.6354 33.3604 21.8436 33.4854 22.0518C35.4012 25.592 39.1496 27.8826 43.3977 27.8826C47.6042 27.8826 51.3525 25.5503 53.31 22.0518C53.8931 24.0093 54.7677 25.8418 55.9755 27.4661C52.9768 31.0479 48.4788 33.3802 43.3977 33.3802ZM69.7195 33.3802C64.6384 33.3802 60.1404 31.0479 57.1833 27.3828C57.0584 27.2579 56.9751 27.133 56.8918 27.008C56.7669 26.8831 56.6836 26.7165 56.6003 26.5915C55.3508 24.8423 54.4346 22.8015 53.9764 20.5941C53.8098 19.8861 53.7265 19.1781 53.6849 18.4701C53.6432 18.0952 53.6432 17.7204 53.6432 17.3039C53.6432 13.8471 54.7261 10.6402 56.6003 8.01632C56.6836 7.89137 56.8085 7.72478 56.8918 7.59983C56.9751 7.47489 57.1 7.34995 57.1833 7.225C60.1404 3.55994 64.6801 1.22761 69.7195 1.22761C78.5906 1.22761 85.8375 8.47445 85.8375 17.3456C85.8375 26.175 78.5906 33.3802 69.7195 33.3802Z" fill="#FC5640"/>
</svg>
