<svg width="120" height="41" viewBox="0 0 120 41" fill="none" xmlns="http://www.w3.org/2000/svg">
<path fill-rule="evenodd" clip-rule="evenodd" d="M25.8576 20.3245V20.2412C26.2325 20.1995 26.524 19.9913 26.6906 19.6581C26.8988 19.3249 27.0238 18.8668 27.0238 18.242C27.0238 17.4924 26.8988 16.9509 26.6489 16.6177C26.399 16.2846 25.8993 16.118 25.1496 16.118H21.4429V24.9891H25.3162C26.0242 24.9891 26.4824 24.8225 26.7739 24.4477C27.0238 24.1145 27.1904 23.4481 27.1904 22.5318C27.1904 21.8238 27.0654 21.2407 26.8155 20.8659C26.5656 20.5327 26.2325 20.3245 25.8576 20.3245ZM22.4841 16.9509H25.108C25.4828 16.9509 25.691 17.0759 25.8576 17.2841C25.9826 17.4924 26.0659 17.8672 26.0659 18.4086C26.0659 19.4915 25.7743 19.908 24.983 19.908H22.4841V16.9509ZM25.9409 23.7813C25.7743 24.0312 25.5661 24.1145 25.2329 24.1145H22.4841V20.6576H24.983C25.3995 20.6576 25.691 20.7826 25.8576 21.0325C26.0242 21.2824 26.1075 21.7405 26.1075 22.4069C26.1492 23.1149 26.0659 23.5314 25.9409 23.7813ZM31.5635 16.118C30.6056 16.118 29.8142 16.4095 29.2311 16.9926C28.6481 17.5757 28.3565 18.7835 28.3565 20.5743C28.3565 22.4069 28.6481 23.6147 29.2311 24.1561C29.8142 24.7392 30.5639 25.0307 31.5635 25.0307C32.5214 25.0307 33.3127 24.7392 33.8958 24.1561C34.4788 23.573 34.7704 22.3652 34.7704 20.5743C34.7704 18.7418 34.4788 17.534 33.8958 16.9926C33.3127 16.4095 32.5214 16.118 31.5635 16.118ZM33.1044 23.6147C32.688 24.0312 32.1882 24.1978 31.5218 24.1978C30.8971 24.1978 30.3556 23.9895 29.9808 23.6147C29.5643 23.1982 29.3977 22.1986 29.3977 20.5743C29.3977 18.9501 29.606 17.9505 29.9808 17.534C30.3973 17.1175 30.8971 16.9509 31.5218 16.9509C32.1465 16.9509 32.688 17.1592 33.1044 17.534C33.5209 17.9505 33.6875 18.9501 33.6875 20.5743C33.6875 22.1986 33.5209 23.1982 33.1044 23.6147ZM39.6432 22.7401C39.6016 22.8234 39.6016 22.9483 39.6016 23.0316V23.8646H39.5183L39.4767 23.0316C39.4767 22.9483 39.435 22.8234 39.435 22.7401L37.5192 16.118H35.8116V24.9891H36.8528V19.4915C36.8528 19.4082 36.8528 19.2833 36.8112 19.2L36.6446 16.9509H36.7279L38.8936 24.9891H40.143L42.2671 16.9509H42.3504L42.1838 19.1583C42.1838 19.2416 42.1422 19.3665 42.1422 19.4498V24.9891H43.1834V16.118H41.5174L39.6432 22.7401ZM48.9309 20.3245V20.2412C49.3057 20.1995 49.5972 19.9913 49.7638 19.6581C49.9721 19.3249 50.097 18.8668 50.097 18.242C50.097 17.4924 49.9721 16.9509 49.7222 16.6177C49.4723 16.2846 48.9725 16.118 48.2228 16.118H44.5161V24.9891H48.3894C49.0975 24.9891 49.5556 24.8225 49.8471 24.4477C50.097 24.1145 50.2636 23.4481 50.2636 22.5318C50.2636 21.8238 50.1387 21.2407 49.8888 20.8659C49.6389 20.5327 49.3057 20.3245 48.9309 20.3245ZM45.5573 16.9509H48.1812C48.556 16.9509 48.7643 17.0759 48.9309 17.2841C49.0558 17.4924 49.1391 17.8672 49.1391 18.4086C49.1391 19.4915 48.8476 19.908 48.0562 19.908H45.5573V16.9509ZM49.0142 23.7813C48.8476 24.0312 48.6393 24.1145 48.3061 24.1145H45.5573V20.6576H48.0562C48.4727 20.6576 48.7643 20.7826 48.9309 21.0325C49.0974 21.2824 49.1808 21.7405 49.1808 22.4069C49.2224 23.1149 49.1391 23.5314 49.0142 23.7813ZM51.4298 24.9891H56.3859V24.0728H52.471V20.9075H56.2193V19.9913H52.471V17.0342H56.3859V16.118H51.4298V24.9891ZM62.5916 20.5743C62.8831 20.1579 63.0497 19.5331 63.0497 18.7002C63.0497 17.8255 62.9247 17.2008 62.6332 16.7427C62.3417 16.3262 61.8419 16.0763 61.1339 16.0763H57.5938V24.9474H58.635V21.324H60.759V21.6156L61.9252 24.9474H63.0497L61.8002 21.1991L61.4254 21.2407L61.3837 21.1574C61.9252 21.1574 62.3417 20.9492 62.5916 20.5743ZM60.8423 20.4911H58.5933V16.9093H60.8423C61.6753 16.9093 61.9668 17.4507 61.9668 18.7002C61.9668 19.9496 61.6753 20.4911 60.8423 20.4911ZM65.5486 17.2008C65.8818 17.0342 66.3399 16.9509 66.923 16.9509C67.5061 16.9509 67.9642 17.0759 68.2974 17.2841C68.6306 17.4924 68.7555 18.1171 68.7555 19.1167H69.7967C69.7967 17.8672 69.5468 17.0342 69.0887 16.6594C68.6306 16.2846 67.8809 16.118 66.8813 16.118C65.9234 16.118 65.1738 16.2846 64.7156 16.5761C64.2575 16.9093 64.0076 17.5757 64.0076 18.6169C64.0076 19.4082 64.2158 19.9913 64.5907 20.2828C65.0072 20.5744 65.6319 20.7826 66.5482 20.9492C67.2562 21.0325 67.8393 21.1991 68.2141 21.4073C68.5889 21.6156 68.7555 22.0737 68.7555 22.7401C68.7555 23.3232 68.5889 23.7396 68.2974 23.9062C67.9642 24.0728 67.5061 24.1978 66.923 24.1978C66.2983 24.1978 65.8401 24.0728 65.5486 23.8646C65.2571 23.6147 65.0905 23.0316 65.0905 21.9904H64.0493C64.0493 23.2815 64.2575 24.0728 64.7156 24.4477C65.1738 24.8225 65.9234 25.0307 66.923 25.0307C67.9226 25.0307 68.6722 24.8641 69.1304 24.531C69.5885 24.1978 69.7967 23.5314 69.7967 22.6151C69.7967 21.7405 69.5885 21.1574 69.2137 20.8659C68.8388 20.5744 68.1724 20.3245 67.2145 20.1995C66.5482 20.1162 66.0067 19.9913 65.5902 19.783C65.2154 19.5748 65.0072 19.2 65.0072 18.5752C65.0488 17.7839 65.2154 17.3674 65.5486 17.2008ZM77.3351 16.118C76.3772 16.118 75.5859 16.4095 75.0028 16.9926C74.4197 17.5757 74.1282 18.7835 74.1282 20.5743C74.1282 22.4069 74.4197 23.6147 75.0028 24.1561C75.5859 24.7392 76.3355 25.0307 77.3351 25.0307C78.293 25.0307 79.0844 24.7392 79.6674 24.1561C80.2505 23.573 80.542 22.3652 80.542 20.5743C80.542 18.7418 80.2505 17.534 79.6674 16.9926C79.0844 16.4095 78.293 16.118 77.3351 16.118ZM78.9177 23.6147C78.5013 24.0312 78.0015 24.1978 77.3351 24.1978C76.7104 24.1978 76.1689 23.9895 75.7941 23.6147C75.3776 23.1982 75.211 22.1986 75.211 20.5743C75.211 18.9501 75.4193 17.9505 75.7941 17.534C76.2106 17.1175 76.7104 16.9509 77.3351 16.9509C77.9598 16.9509 78.5013 17.1592 78.9177 17.534C79.3342 17.9505 79.5008 18.9501 79.5008 20.5743C79.5008 22.1986 79.2926 23.1982 78.9177 23.6147ZM86.9142 21.1991C86.9142 21.3657 86.9142 21.5739 86.9142 21.6989L87.0392 24.1145H86.9559L83.4574 16.0763H81.5832V24.9474H82.6245V19.4498C82.6245 19.3249 82.6245 19.1167 82.6245 18.9917L82.4995 16.7843H82.5412L86.0813 24.9474H87.8722V16.0763H86.8309V21.1991H86.9142ZM89.9129 23.9479H89.9962C90.1212 23.9479 90.2045 23.8646 90.2045 23.698V16.118H89.1633V24.9891H93.578V24.0312H89.9129V23.9479ZM98.2843 16.118L96.4101 19.9913C96.3684 20.0746 96.3268 20.1579 96.3268 20.2412L96.2851 20.5327H96.2018L96.1186 20.1995C96.1186 20.1162 96.0769 19.9913 96.0353 19.9496L94.1611 16.0763H93.0366L95.7021 21.4073V24.9474H96.7433V21.4073L99.4088 16.0347H98.2843V16.118Z" fill="#FC5640"/>
<path d="M60.3841 0C27.6068 0 0.910156 9.03771 0.910156 20.1995C0.910156 31.3196 27.5652 40.399 60.3841 40.399C93.1615 40.399 119.858 31.3613 119.858 20.1995C119.858 9.03771 93.2031 0 60.3841 0ZM118.775 20.1578C118.775 30.6949 92.5784 39.2745 60.3841 39.2745C28.1899 39.2745 1.99303 30.6949 1.99303 20.1578C1.99303 9.62079 28.1899 1.04121 60.3841 1.04121C92.5784 1.04121 118.775 9.62079 118.775 20.1578Z" fill="#FC5640"/>
</svg>
