<svg width="245" height="58" viewBox="0 0 245 58" fill="none" xmlns="http://www.w3.org/2000/svg">
<g clip-path="url(#clip0_550_653)">
<path d="M45.0565 36.348C45.0565 42.3258 41.4761 47.11 33.2208 47.11H0V10.7159H31.6659C39.9212 10.7159 42.4633 14.4604 42.4633 19.972C42.4633 22.3129 41.3738 24.705 39.6092 26.7847C42.7753 29.0743 45.0616 32.3987 45.0616 36.348M13.5031 23.5064H25.9628C27.3132 23.5064 28.9755 23.5064 28.9755 21.5292C28.9755 19.5519 27.3132 19.5519 25.9628 19.5519H13.5031V23.5012V23.5064ZM31.5687 35.3082C31.5687 33.3873 29.9064 33.3873 28.5561 33.3873H13.5031V37.2342H28.5561C29.9064 37.2342 31.5687 37.2342 31.5687 35.3082Z" fill="#171717"/>
<path d="M44.8621 18.6606C44.8621 6.02897 51.7159 0 67.7049 0C83.6938 0 90.5425 6.08019 90.5425 18.6606C90.5425 31.241 83.6375 37.4288 67.7049 37.4288C51.7722 37.4288 44.8672 31.3486 44.8672 18.6606M77.0496 18.6606C77.0496 14.865 75.6993 11.433 67.7049 11.433C59.7104 11.433 58.3601 14.8137 58.3601 18.6606C58.3601 22.5075 59.7615 25.9906 67.7049 25.9906C75.6482 25.9906 77.0496 22.5075 77.0496 18.6606Z" fill="#171717"/>
<path d="M147.941 47.1049H134.443V29.7966L124.53 47.1049H115.702L105.79 29.7966V47.1049H92.2917V10.7159H108.905L120.116 31.5125L131.328 10.7159H147.941V47.1049Z" fill="#171717"/>
<path d="M195.069 36.348C195.069 42.3258 191.489 47.11 183.233 47.11H150.013V10.7159H181.679C189.934 10.7159 192.476 14.4604 192.476 19.972C192.476 22.3129 191.386 24.705 189.622 26.7847C192.788 29.0743 195.074 32.3987 195.074 36.348M163.516 23.5064H175.976C177.326 23.5064 178.988 23.5064 178.988 21.5292C178.988 19.5519 177.326 19.5519 175.976 19.5519H163.516V23.5012V23.5064ZM181.581 35.3082C181.581 33.3873 179.919 33.3873 178.569 33.3873H163.516V37.2342H178.569C179.919 37.2342 181.581 37.2342 181.581 35.3082Z" fill="#171717"/>
<path d="M195.069 28.8591C195.069 16.2275 201.923 10.1985 217.912 10.1985C233.901 10.1985 240.755 16.2787 240.755 28.8591C240.755 41.4395 233.85 47.6273 217.912 47.6273C201.974 47.6273 195.069 41.5471 195.069 28.8591ZM227.252 28.8591C227.252 25.0635 225.901 21.6315 217.907 21.6315C209.912 21.6315 208.562 25.0122 208.562 28.8591C208.562 32.7059 209.963 36.1891 217.907 36.1891C225.85 36.1891 227.252 32.7059 227.252 28.8591Z" fill="#171717"/>
<path d="M58.3601 58C58.3601 57.9693 58.3601 57.9437 58.3601 57.9129C58.3601 54.0661 59.7104 50.6853 67.7049 50.6853C75.6993 50.6853 77.0497 54.1173 77.0497 57.9129C77.0497 57.9437 77.0497 57.9693 77.0497 58H90.5477C90.5477 57.9693 90.5477 57.9437 90.5477 57.9129C90.5477 45.3325 83.6427 39.2523 67.71 39.2523C51.7773 39.2523 44.8723 45.2813 44.8723 57.9129C44.8723 57.9437 44.8723 57.9693 44.8723 58H58.3703H58.3601Z" fill="#171717"/>
<path d="M242.023 6.00854V6.5259H241.399V8.35457H240.75V6.5259H240.131V6.00854H242.028H242.023Z" fill="#1F140F"/>
<path d="M245 6.00854V8.35457H244.351V7.05862L243.911 8.35457H243.363L242.918 7.04838V8.35457H242.269V6.00854H243.056L243.645 7.535L244.218 6.00854H245Z" fill="#1F140F"/>
</g>
<defs>
<clipPath id="clip0_550_653">
<rect width="245" height="58" fill="white"/>
</clipPath>
</defs>
</svg>
